<?xml version="1.0" encoding="utf-8" standalone="no"?>
<!DOCTYPE svg PUBLIC "-//W3C//DTD SVG 1.1//EN"
  "http://www.w3.org/Graphics/SVG/1.1/DTD/svg11.dtd">
<!-- Created with matplotlib (https://matplotlib.org/) -->
<svg height="432pt" version="1.1" viewBox="0 0 648 432" width="648pt" xmlns="http://www.w3.org/2000/svg" xmlns:xlink="http://www.w3.org/1999/xlink">
 <defs>
  <style type="text/css">
*{stroke-linecap:butt;stroke-linejoin:round;}
  </style>
 </defs>
 <g id="figure_1">
  <g id="patch_1">
   <path d="M 0 432
L 648 432
L 648 0
L 0 0
z
" style="fill:none;opacity:0;"/>
  </g>
  <g id="axes_1">
   <g id="patch_2">
    <path clip-path="url(#p3ad7159658)" d="M 216 388.8
L 216 216
L 43.2 216
L 43.2 388.8
z
" style="fill:#e0e0e0;"/>
   </g>
   <g id="patch_3">
    <path clip-path="url(#p3ad7159658)" d="M 388.8 388.8
L 388.8 216
L 216 216
L 216 388.8
z
" style="fill:#c49c94;"/>
   </g>
   <g id="patch_4">
    <path clip-path="url(#p3ad7159658)" d="M 388.8 388.8
L 561.6 388.8
L 475.2 216
L 388.8 216
z
" style="fill:#f7b6d2;"/>
   </g>
   <g id="patch_5">
    <path clip-path="url(#p3ad7159658)" d="M 475.2 216
L 475.2 43.2
L 43.2 43.2
L 43.2 216
z
" style="fill:#aec7e8;"/>
   </g>
   <g id="patch_6">
    <path clip-path="url(#p3ad7159658)" d="M 475.2 216
L 604.8 216
L 604.8 43.2
L 475.2 43.2
z
" style="fill:#dbdb8d;"/>
   </g>
   <g id="text_1">
    <text style="font-family:DejaVu Sans;font-size:11px;font-style:normal;font-weight:normal;text-anchor:middle;" transform="rotate(-0, 129.6, 305.435313)" x="129.6" y="305.435313">Staircase</text>
   </g>
   <g id="text_2">
    <text style="font-family:DejaVu Sans;font-size:11px;font-style:normal;font-weight:normal;text-anchor:middle;" transform="rotate(-0, 302.4, 305.435313)" x="302.4" y="305.435313">Kitchen</text>
   </g>
   <g id="text_3">
    <text style="font-family:DejaVu Sans;font-size:11px;font-style:normal;font-weight:normal;text-anchor:middle;" transform="rotate(-0, 456, 315.035313)" x="456" y="315.035313">Dining</text>
   </g>
   <g id="text_4">
    <text style="font-family:DejaVu Sans;font-size:11px;font-style:normal;font-weight:normal;text-anchor:middle;" transform="rotate(-0, 259.2, 132.635312)" x="259.2" y="132.635312">Living</text>
   </g>
   <g id="text_5">
    <text style="font-family:DejaVu Sans;font-size:11px;font-style:normal;font-weight:normal;text-anchor:middle;" transform="rotate(-0, 540, 132.635312)" x="540" y="132.635312">Bathroom</text>
   </g>
   <g id="line2d_1">
    <path clip-path="url(#p3ad7159658)" d="M 216 388.8
L 216 216
" style="fill:none;stroke:#7f7f7f;stroke-linecap:square;stroke-width:3.5;"/>
   </g>
   <g id="line2d_2">
    <path clip-path="url(#p3ad7159658)" d="M 43.2 216
L 216 216
" style="fill:none;stroke:#7f7f7f;stroke-linecap:square;stroke-width:3.5;"/>
   </g>
   <g id="line2d_3">
    <path clip-path="url(#p3ad7159658)" d="M 216 216
L 388.8 216
" style="fill:none;stroke:#7f7f7f;stroke-linecap:square;stroke-width:3.5;"/>
   </g>
   <g id="line2d_4">
    <path clip-path="url(#p3ad7159658)" d="M 388.8 216
L 475.2 216
" style="fill:none;stroke:#7f7f7f;stroke-linecap:square;stroke-width:3.5;"/>
   </g>
   <g id="line2d_5">
    <path clip-path="url(#p3ad7159658)" d="M 388.8 388.8
L 388.8 216
" style="fill:none;stroke:#7f7f7f;stroke-linecap:square;stroke-width:3.5;"/>
   </g>
   <g id="line2d_6">
    <path clip-path="url(#p3ad7159658)" d="M 475.2 216
L 475.2 43.2
" style="fill:none;stroke:#7f7f7f;stroke-linecap:square;stroke-width:3.5;"/>
   </g>
   <g id="line2d_7">
    <path clip-path="url(#p3ad7159658)" d="M 43.2 216
L 43.2 43.2
L 475.2 43.2
L 604.8 43.2
L 604.8 216
L 475.2 216
L 561.6 388.8
L 388.8 388.8
L 216 388.8
L 43.2 388.8
L 43.2 216
" style="fill:none;stroke:#555555;stroke-linecap:square;stroke-width:5;"/>
   </g>
   <g id="patch_7">
    <path clip-path="url(#p3ad7159658)" d="M 172.8 212.76
L 172.8 219.24
L 86.4 219.24
L 86.4 212.76
z
" style="fill:#ffffff;"/>
   </g>
   <g id="patch_8">
    <path clip-path="url(#p3ad7159658)" d="M 385.56 259.2
L 392.04 259.2
L 392.04 345.6
L 385.56 345.6
z
" style="fill:#ffffff;"/>
   </g>
   <g id="patch_9">
    <path clip-path="url(#p3ad7159658)" d="M 345.6 212.76
L 345.6 219.24
L 259.2 219.24
L 259.2 212.76
z
" style="fill:#ffffff;stroke:#777777;stroke-linejoin:miter;"/>
   </g>
   <g id="patch_10">
    <path clip-path="url(#p3ad7159658)" d="M 471.96 86.4
L 478.44 86.4
L 478.44 172.8
L 471.96 172.8
z
" style="fill:#ffffff;stroke:#777777;stroke-linejoin:miter;"/>
   </g>
   <g id="patch_11">
    <path clip-path="url(#p3ad7159658)" d="M 39.96 86.4
L 46.44 86.4
L 46.44 172.8
L 39.96 172.8
z
" style="fill:#ffd700;stroke:#777777;stroke-linejoin:miter;"/>
   </g>
   <g id="patch_12">
    <path clip-path="url(#p3ad7159658)" d="M 345.6 385.56
L 345.6 392.04
L 259.2 392.04
L 259.2 385.56
z
" style="fill:#ffffff;stroke:#777777;stroke-linejoin:miter;stroke-width:1.2;"/>
   </g>
   <g id="patch_13">
    <path clip-path="url(#p3ad7159658)" d="M 601.56 86.4
L 608.04 86.4
L 608.04 172.8
L 601.56 172.8
z
" style="fill:#ffffff;stroke:#777777;stroke-linejoin:miter;stroke-width:1.2;"/>
   </g>
   <g id="line2d_8">
    <path clip-path="url(#p3ad7159658)" d="M 259.2 388.8
L 345.6 388.8
" style="fill:none;stroke:#777777;stroke-linecap:square;stroke-width:1.2;"/>
   </g>
   <g id="line2d_9">
    <path clip-path="url(#p3ad7159658)" d="M 604.8 172.8
L 604.8 86.4
" style="fill:none;stroke:#777777;stroke-linecap:square;stroke-width:1.2;"/>
   </g>
  </g>
 </g>
 <defs>
  <clipPath id="p3ad7159658">
   <rect height="432" width="648" x="0" y="0"/>
  </clipPath>
 </defs>
</svg>
